<?xml version="1.0" encoding="utf-8"?>
<!-- Generator: Adobe Illustrator 21.1.0, SVG Export Plug-In . SVG Version: 6.00 Build 0)  -->
<svg version="1.1" id="Calque_1" xmlns="http://www.w3.org/2000/svg" xmlns:xlink="http://www.w3.org/1999/xlink" x="0px" y="0px"
	 viewBox="0 0 44.6 44.6" style="enable-background:new 0 0 44.6 44.6;" xml:space="preserve">
<style type="text/css">
	.st0{fill:#3C3C3B;}
</style>
<g>
	<g>
		<path class="st0" d="M22.3,0C10,0,0,10,0,22.3s10,22.3,22.3,22.3s22.3-10,22.3-22.3S34.6,0,22.3,0z M33.5,17.8c0,0.2,0,0.5,0,0.7
			c0,7.4-5.7,16-16,16c-3.2,0-6.1-0.9-8.6-2.5c0.4,0.1,0.9,0.1,1.3,0.1c2.6,0,5.1-0.9,7-2.4c-2.5,0-4.5-1.7-5.2-3.9
			c0.3,0.1,0.7,0.1,1.1,0.1c0.5,0,1-0.1,1.5-0.2c-2.6-0.5-4.5-2.8-4.5-5.5c0,0,0,0,0-0.1c0.8,0.4,1.6,0.7,2.5,0.7
			c-1.5-1-2.5-2.7-2.5-4.7c0-1,0.3-2,0.8-2.8c2.8,3.4,6.9,5.6,11.6,5.9c-0.1-0.4-0.1-0.8-0.1-1.3c0-3.1,2.5-5.6,5.6-5.6
			c1.6,0,3.1,0.7,4.1,1.8c1.3-0.3,2.5-0.7,3.6-1.4c-0.4,1.3-1.3,2.4-2.5,3.1c1.1-0.1,2.2-0.4,3.2-0.9C35.6,16,34.6,17,33.5,17.8z"/>
	</g>
</g>
</svg>
