<?xml version="1.0" encoding="utf-8"?>
<!-- Generator: Adobe Illustrator 21.1.0, SVG Export Plug-In . SVG Version: 6.00 Build 0)  -->
<svg version="1.1" id="Calque_1" xmlns="http://www.w3.org/2000/svg" xmlns:xlink="http://www.w3.org/1999/xlink" x="0px" y="0px"
	 viewBox="0 0 44.6 44.6" style="enable-background:new 0 0 44.6 44.6;" xml:space="preserve">
<style type="text/css">
	.st0{fill:#3C3C3B;}
</style>
<g>
	<path class="st0" d="M22.3,0C10,0,0,10,0,22.3s10,22.3,22.3,22.3s22.3-10,22.3-22.3S34.6,0,22.3,0z M28.2,22.2h-3.9
		c0,6.2,0,13.8,0,13.8h-5.7c0,0,0-7.5,0-13.8h-2.7v-4.9h2.7v-3.2c0-2.3,1.1-5.8,5.8-5.8h4.2V13c0,0-2.6,0-3.1,0s-1.2,0.3-1.2,1.3
		v2.9h4.4L28.2,22.2z"/>
</g>
</svg>
