<svg version="1.1" id="Calque_1" xmlns="http://www.w3.org/2000/svg" xmlns:xlink="http://www.w3.org/1999/xlink" x="0px" y="0px"
	 viewBox="0 0 44.6 44.6" style="enable-background:new 0 0 44.6 44.6;" xml:space="preserve">
<style type="text/css">
	.st0-insta{fill:url(#SVGID_1_);}
	.st1-insta{fill:url(#SVGID_2_);}
	.st2-insta{fill:url(#SVGID_3_);}
</style>
<g>
	<linearGradient id="SVGID_1_" gradientUnits="userSpaceOnUse" x1="15.6915" y1="10.8427" x2="28.9361" y2="33.7831">
		<stop  offset="0" style="stop-color:#5442D6"/>
		<stop  offset="0.3333" style="stop-color:#B727A9"/>
		<stop  offset="0.5651" style="stop-color:#DC2165"/>
		<stop  offset="0.6153" style="stop-color:#E13962"/>
		<stop  offset="0.7467" style="stop-color:#ED735C"/>
		<stop  offset="0.8593" style="stop-color:#F69D57"/>
		<stop  offset="0.9474" style="stop-color:#FBB654"/>
		<stop  offset="1" style="stop-color:#FDC053"/>
	</linearGradient>
	<path class="st0-insta" d="M32.9,14.3c-0.2-0.6-0.5-1.1-1-1.6c-0.5-0.5-0.9-0.8-1.6-1c-0.5-0.2-1.2-0.4-2.5-0.5c-1.4-0.1-1.9-0.1-5.5-0.1
		s-4.1,0-5.5,0.1c-1.3,0.1-2,0.3-2.5,0.5c-0.6,0.2-1.1,0.5-1.6,1c-0.5,0.5-0.8,0.9-1,1.6c-0.2,0.5-0.4,1.2-0.5,2.5
		c-0.1,1.4-0.1,1.9-0.1,5.5s0,4.1,0.1,5.5c0.1,1.3,0.3,2,0.5,2.5c0.2,0.6,0.5,1.1,1,1.6c0.5,0.5,0.9,0.8,1.6,1
		c0.5,0.2,1.2,0.4,2.5,0.5c1.4,0.1,1.9,0.1,5.5,0.1s4.1,0,5.5-0.1c1.3-0.1,2-0.3,2.5-0.5c0.6-0.2,1.1-0.5,1.6-1
		c0.5-0.5,0.8-0.9,1-1.6c0.2-0.5,0.4-1.2,0.5-2.5c0.1-1.4,0.1-1.9,0.1-5.5s0-4.1-0.1-5.5C33.3,15.5,33.1,14.8,32.9,14.3z M22.3,29.3
		c-3.9,0-7-3.1-7-7s3.1-7,7-7s7,3.1,7,7S26.2,29.3,22.3,29.3z M29.6,16.7c-0.9,0-1.6-0.7-1.6-1.6s0.7-1.6,1.6-1.6
		c0.9,0,1.6,0.7,1.6,1.6S30.5,16.7,29.6,16.7z"/>
	<linearGradient id="SVGID_2_" gradientUnits="userSpaceOnUse" x1="20.0481" y1="18.3885" x2="24.5796" y2="26.2373">
		<stop  offset="0" style="stop-color:#5442D6"/>
		<stop  offset="0.3333" style="stop-color:#B727A9"/>
		<stop  offset="0.5651" style="stop-color:#DC2165"/>
		<stop  offset="0.6153" style="stop-color:#E13962"/>
		<stop  offset="0.7467" style="stop-color:#ED735C"/>
		<stop  offset="0.8593" style="stop-color:#F69D57"/>
		<stop  offset="0.9474" style="stop-color:#FBB654"/>
		<stop  offset="1" style="stop-color:#FDC053"/>
	</linearGradient>
	<circle class="st1-insta" cx="22.3" cy="22.3" r="4.5"/>
	<linearGradient id="SVGID_3_" gradientUnits="userSpaceOnUse" x1="11.1552" y1="2.9867" x2="33.4718" y2="41.6402">
		<stop  offset="0" style="stop-color:#5442D6"/>
		<stop  offset="0.3333" style="stop-color:#B727A9"/>
		<stop  offset="0.5651" style="stop-color:#DC2165"/>
		<stop  offset="0.6153" style="stop-color:#E13962"/>
		<stop  offset="0.7467" style="stop-color:#ED735C"/>
		<stop  offset="0.8593" style="stop-color:#F69D57"/>
		<stop  offset="0.9474" style="stop-color:#FBB654"/>
		<stop  offset="1" style="stop-color:#FDC053"/>
	</linearGradient>
	<path class="st2-insta" d="M22.3,0C10,0,0,10,0,22.3c0,12.3,10,22.3,22.3,22.3s22.3-10,22.3-22.3C44.6,10,34.6,0,22.3,0z M35.8,27.9
		c-0.1,1.4-0.3,2.4-0.6,3.3c-0.3,0.9-0.8,1.7-1.6,2.4s-1.5,1.2-2.4,1.6c-0.9,0.3-1.9,0.6-3.3,0.6c-1.4,0.1-1.9,0.1-5.6,0.1
		s-4.2,0-5.6-0.1c-1.4-0.1-2.4-0.3-3.3-0.6c-0.9-0.3-1.7-0.8-2.4-1.6s-1.2-1.5-1.6-2.4c-0.3-0.9-0.6-1.9-0.6-3.3
		c-0.1-1.4-0.1-1.9-0.1-5.6s0-4.2,0.1-5.6c0.1-1.4,0.3-2.4,0.6-3.3c0.3-0.9,0.8-1.7,1.6-2.4c0.8-0.8,1.5-1.2,2.4-1.6
		c0.9-0.3,1.9-0.6,3.3-0.6c1.4-0.1,1.9-0.1,5.6-0.1s4.2,0,5.6,0.1c1.4,0.1,2.4,0.3,3.3,0.6c0.9,0.3,1.7,0.8,2.4,1.6
		c0.8,0.8,1.2,1.5,1.6,2.4c0.3,0.9,0.6,1.9,0.6,3.3c0.1,1.4,0.1,1.9,0.1,5.6S35.9,26.5,35.8,27.9z"/>
</g>
</svg>
