<?xml version="1.0" encoding="utf-8"?>
<!-- Generator: Adobe Illustrator 21.1.0, SVG Export Plug-In . SVG Version: 6.00 Build 0)  -->
<svg version="1.1" id="Calque_1" xmlns="http://www.w3.org/2000/svg" xmlns:xlink="http://www.w3.org/1999/xlink" x="0px" y="0px"
	 viewBox="0 0 44.6 44.6" style="enable-background:new 0 0 44.6 44.6;" xml:space="preserve">
<style type="text/css">
	.st0{fill:#3C3C3B;}
</style>
<g>
	<path class="st0" d="M32.9,14.3c-0.2-0.6-0.5-1.1-1-1.6s-0.9-0.8-1.6-1c-0.5-0.2-1.2-0.4-2.5-0.5c-1.4-0.1-1.9-0.1-5.5-0.1
		s-4.1,0-5.5,0.1c-1.3,0.1-2,0.3-2.5,0.5c-0.6,0.2-1.1,0.5-1.6,1s-0.8,0.9-1,1.6c-0.2,0.5-0.4,1.2-0.5,2.5c-0.1,1.4-0.1,1.9-0.1,5.5
		s0,4.1,0.1,5.5c0.1,1.3,0.3,2,0.5,2.5c0.2,0.6,0.5,1.1,1,1.6c0.5,0.5,0.9,0.8,1.6,1c0.5,0.2,1.2,0.4,2.5,0.5
		c1.4,0.1,1.9,0.1,5.5,0.1s4.1,0,5.5-0.1c1.3-0.1,2-0.3,2.5-0.5c0.6-0.2,1.1-0.5,1.6-1s0.8-0.9,1-1.6c0.2-0.5,0.4-1.2,0.5-2.5
		c0.1-1.4,0.1-1.9,0.1-5.5s0-4.1-0.1-5.5C33.3,15.5,33.1,14.8,32.9,14.3z M22.3,29.3c-3.9,0-7-3.1-7-7s3.1-7,7-7s7,3.1,7,7
		S26.2,29.3,22.3,29.3z M29.6,16.7c-0.9,0-1.6-0.7-1.6-1.6s0.7-1.6,1.6-1.6s1.6,0.7,1.6,1.6C31.2,16,30.5,16.7,29.6,16.7z"/>
	<circle class="st0" cx="22.3" cy="22.3" r="4.5"/>
	<path class="st0" d="M22.3,0C10,0,0,10,0,22.3s10,22.3,22.3,22.3s22.3-10,22.3-22.3S34.6,0,22.3,0z M35.8,27.9
		c-0.1,1.4-0.3,2.4-0.6,3.3s-0.8,1.7-1.6,2.4s-1.5,1.2-2.4,1.6c-0.9,0.3-1.9,0.6-3.3,0.6c-1.4,0.1-1.9,0.1-5.6,0.1s-4.2,0-5.6-0.1
		s-2.4-0.3-3.3-0.6c-0.9-0.3-1.7-0.8-2.4-1.6s-1.2-1.5-1.6-2.4c-0.3-0.9-0.6-1.9-0.6-3.3c-0.1-1.4-0.1-1.9-0.1-5.6s0-4.2,0.1-5.6
		s0.3-2.4,0.6-3.3c0.3-0.9,0.8-1.7,1.6-2.4c0.8-0.8,1.5-1.2,2.4-1.6c0.9-0.3,1.9-0.6,3.3-0.6c1.4-0.1,1.9-0.1,5.6-0.1s4.2,0,5.6,0.1
		c1.4,0.1,2.4,0.3,3.3,0.6c0.9,0.3,1.7,0.8,2.4,1.6c0.8,0.8,1.2,1.5,1.6,2.4c0.3,0.9,0.6,1.9,0.6,3.3c0.1,1.4,0.1,1.9,0.1,5.6
		S35.9,26.5,35.8,27.9z"/>
</g>
</svg>
