<?xml version="1.0" encoding="utf-8"?>
<!-- Generator: Adobe Illustrator 21.1.0, SVG Export Plug-In . SVG Version: 6.00 Build 0)  -->
<svg version="1.1" id="Calque_1" xmlns="http://www.w3.org/2000/svg" xmlns:xlink="http://www.w3.org/1999/xlink" x="0px" y="0px"
	 viewBox="0 0 44.6 44.6" style="enable-background:new 0 0 44.6 44.6;" xml:space="preserve">
<style type="text/css">
	.st0{fill:#3C3C3B;}
</style>
<g>
	<polygon class="st0" points="12.8,24.2 14.4,24.2 14.4,32.2 16,32.2 16,24.2 17.6,24.2 17.6,22.8 12.8,22.8 	"/>
	<path class="st0" d="M22.4,17.5c0.2,0,0.4-0.1,0.5-0.2s0.2-0.3,0.2-0.5v-4.2c0-0.2-0.1-0.3-0.2-0.4c-0.1-0.1-0.3-0.2-0.5-0.2
		s-0.3,0.1-0.5,0.2c-0.1,0.1-0.2,0.2-0.2,0.4v4.2c0,0.2,0.1,0.4,0.2,0.5C22,17.5,22.2,17.5,22.4,17.5z"/>
	<path class="st0" d="M25.8,25.2c-0.2,0-0.4,0.1-0.6,0.2s-0.4,0.3-0.6,0.5v-3h-1.4v9.4h1.4v-0.5c0.2,0.2,0.4,0.4,0.6,0.5
		s0.5,0.2,0.7,0.2c0.4,0,0.7-0.1,0.9-0.4c0.2-0.3,0.3-0.6,0.3-1.1v-3.8c0-0.6-0.1-1-0.3-1.3C26.6,25.4,26.3,25.2,25.8,25.2z
		 M25.7,30.6c0,0.2,0,0.4-0.1,0.5s-0.2,0.1-0.4,0.1c-0.1,0-0.2,0-0.3-0.1c-0.1,0-0.2-0.1-0.3-0.2v-4.3c0.1-0.1,0.2-0.2,0.3-0.2
		c0.1,0,0.2-0.1,0.3-0.1c0.2,0,0.3,0.1,0.4,0.2s0.1,0.3,0.1,0.5V30.6z"/>
	<path class="st0" d="M20.8,30.6c-0.1,0.1-0.3,0.3-0.4,0.4c-0.2,0.1-0.3,0.1-0.4,0.1s-0.2,0-0.3-0.1c-0.1-0.1-0.1-0.2-0.1-0.4v-5.3
		h-1.4v5.8c0,0.4,0.1,0.7,0.2,0.9c0.2,0.2,0.4,0.3,0.7,0.3c0.3,0,0.5-0.1,0.8-0.2c0.3-0.2,0.5-0.4,0.8-0.6v0.8h1.4v-6.9h-1.4
		L20.8,30.6L20.8,30.6z"/>
	<path class="st0" d="M22.3,0C10,0,0,10,0,22.3s10,22.3,22.3,22.3s22.3-10,22.3-22.3S34.6,0,22.3,0z M25.9,11h1.6v5.9
		c0,0.2,0,0.3,0.1,0.4s0.2,0.1,0.3,0.1c0.1,0,0.3-0.1,0.4-0.2c0.2-0.1,0.3-0.2,0.5-0.4V11h1.6v7.6h-1.6v-0.8
		c-0.3,0.3-0.6,0.5-0.9,0.7s-0.6,0.2-0.9,0.2c-0.4,0-0.6-0.1-0.8-0.3c-0.2-0.2-0.3-0.6-0.3-1C25.9,17.4,25.9,11,25.9,11z M20.1,12.8
		c0-0.6,0.2-1.1,0.6-1.4c0.4-0.3,1-0.5,1.7-0.5c0.6,0,1.2,0.2,1.6,0.6c0.4,0.4,0.6,0.8,0.6,1.4v3.9c0,0.7-0.2,1.2-0.6,1.5
		c-0.4,0.4-1,0.6-1.7,0.6s-1.2-0.2-1.6-0.6s-0.6-0.9-0.6-1.6V12.8z M15.9,8.3l1.1,4.1h0.1l1.1-4.1H20l-2,6.1v4.3h-1.8v-4.1l-2.1-6.2
		h1.8V8.3z M36.3,30.1c0,2.8-2.2,5-5,5H13.9c-2.8,0-5-2.2-5-5v-4c0-2.8,2.2-5,5-5h17.4c2.8,0,5,2.2,5,5V30.1z"/>
	<path class="st0" d="M30,25.1c-0.6,0-1.1,0.2-1.5,0.6s-0.6,0.9-0.6,1.5v3.1c0,0.7,0.2,1.2,0.5,1.6c0.4,0.4,0.8,0.6,1.5,0.6
		s1.2-0.2,1.6-0.5c0.4-0.4,0.5-0.9,0.5-1.6V30h-1.4v0.3c0,0.4,0,0.7-0.1,0.8c-0.1,0.1-0.3,0.2-0.5,0.2s-0.4-0.1-0.5-0.2
		s-0.1-0.4-0.1-0.8V29H32v-1.8c0-0.7-0.2-1.2-0.5-1.5C31.1,25.3,30.6,25.1,30,25.1z M30.5,27.8h-1.2v-0.7c0-0.3,0-0.5,0.1-0.6
		s0.3-0.2,0.5-0.2s0.4,0.1,0.5,0.2s0.1,0.3,0.1,0.6V27.8z"/>
</g>
</svg>
