<?xml version="1.0" encoding="utf-8"?>
<!-- Generator: Adobe Illustrator 21.1.0, SVG Export Plug-In . SVG Version: 6.00 Build 0)  -->
<svg version="1.1" id="Calque_1" xmlns="http://www.w3.org/2000/svg" xmlns:xlink="http://www.w3.org/1999/xlink" x="0px" y="0px"
	 viewBox="0 0 44.6 44.6" style="enable-background:new 0 0 44.6 44.6;" xml:space="preserve">
<style type="text/css">
	.st0{fill:#3C3C3B;}
</style>
<g>
	<path class="st0" d="M22.3,0C10,0,0,10,0,22.3s10,22.3,22.3,22.3s22.3-10,22.3-22.3S34.6,0,22.3,0z M34.7,33.2c0,1-0.8,1.8-1.8,1.8
		H11.7c-1,0-1.8-0.8-1.8-1.8V11.7c0-1,0.8-1.8,1.8-1.8h21.2c1,0,1.8,0.8,1.8,1.8V33.2z"/>
	<path class="st0" d="M26.6,19.3c-2,0-2.9,1.1-3.4,1.9l0,0l0,0l0,0v-1.6h-3.8c0,1.1,0,11.3,0,11.3h3.8v-6.3c0-0.3,0-0.7,0.1-0.9
		c0.3-0.7,0.9-1.4,1.9-1.4c1.4,0,1.9,1,1.9,2.6V31H31v-6.5C31,20.9,29.1,19.3,26.6,19.3z"/>
	<path class="st0" d="M15.5,14.1c-1.3,0-2.1,0.8-2.1,2c0,1.1,0.8,2,2.1,2l0,0c1.3,0,2.1-0.9,2.1-2C17.6,14.9,16.8,14.1,15.5,14.1z"
		/>
	<rect x="13.6" y="19.6" class="st0" width="3.8" height="11.3"/>
</g>
</svg>
