<?xml version="1.0" encoding="utf-8"?>
<!-- Generator: Adobe Illustrator 21.1.0, SVG Export Plug-In . SVG Version: 6.00 Build 0)  -->
<svg version="1.1" id="Calque_1" xmlns="http://www.w3.org/2000/svg" xmlns:xlink="http://www.w3.org/1999/xlink" x="0px" y="0px"
	 viewBox="0 0 44.6 44.6" style="enable-background:new 0 0 44.6 44.6;" xml:space="preserve">
<style type="text/css">
	.st0{fill:#3C3C3B;}
</style>
<g>
	<path class="st0" d="M20.7,20.3c-2.4,0-4.4,1.9-4.3,4.3c0,2.5,1.9,4.3,4.5,4.3c2.4,0,4.1-2,4.1-4.3C24.9,22.2,23.1,20.3,20.7,20.3z
		"/>
	<path class="st0" d="M22.3,0C10,0,0,10,0,22.3s10,22.3,22.3,22.3s22.3-10,22.3-22.3S34.6,0,22.3,0z M30,33.6c-1.7,0-3.4,0-5.1,0
		c0-0.6,0-1.2,0-1.8c-0.5,0.4-1,0.7-1.5,1c-1.4,0.8-3,1-4.6,0.9c-1.7-0.2-3.3-0.8-4.6-1.9c-1.8-1.5-2.9-3.5-3.2-5.8
		c-0.6-4.8,2.5-8.8,6.2-9.9c2-0.6,4-0.6,5.8,0.4c0.5,0.3,0.9,0.7,1.4,1.1c0.1,0.1,0.1,0.2,0.2,0.3c0,0,0.1,0,0.1-0.1s0-0.2,0-0.3
		c0-2.2,0-4.5,0-6.7c0-0.3,0.1-0.4,0.4-0.5c1.6-0.3,3.2-0.6,4.7-1c0,0,0.1,0,0.2,0C30,17.3,30,25.4,30,33.6z"/>
</g>
</svg>
