<?xml version="1.0" encoding="UTF-8" standalone="no"?>
<svg width="1295px" height="498px" viewBox="0 0 1295 498" version="1.1" xmlns="http://www.w3.org/2000/svg" xmlns:xlink="http://www.w3.org/1999/xlink">
    <!-- Generator: Sketch 47 (45396) - http://www.bohemiancoding.com/sketch -->
    <title>logo BG</title>
    <desc>Created with Sketch.</desc>
    <defs>
        <polygon id="path-1" points="0.000350790126 0.173423239 1226.73271 0.173423239 1226.73271 498 0.000350790126 498"></polygon>
    </defs>
    <g id="Page-1" stroke="none" stroke-width="1" fill="none" fill-rule="evenodd" opacity="0.0469882246">
        <g id="carlsberg" transform="translate(-73.000000, -127.000000)">
            <g id="logo-BG" transform="translate(73.000000, 127.000000)">
                <path d="M1283.06002,185.64828 L1278.55473,166 L1271.00972,166 L1271.00972,191 L1275.83895,191 L1275.83895,174.090261 C1275.83895,173.608235 1275.83895,172.923158 1275.82144,172.036796 C1275.81093,171.161028 1275.81093,170.498905 1275.81093,170.006286 L1280.46856,191 L1285.5079,191 L1290.2163,170.006286 C1290.2163,170.498905 1290.19354,171.161028 1290.19354,172.036796 C1290.18128,172.923158 1290.17078,173.608235 1290.17078,174.090261 L1290.17078,191 L1295,191 L1295,166 L1287.5548,166 L1283.06002,185.64828 Z M1268.06631,166 L1268.06631,170.43181 L1260.65614,170.43181 L1260.65614,191 L1255.43819,191 L1255.43819,170.43181 L1248,170.43181 L1248,166 L1268.06631,166 Z" id="Fill-1" fill="#010202"></path>
                <g id="Group-5">
                    <mask id="mask-2" fill="white">
                        <use xlink:href="#path-1"></use>
                    </mask>
                    <g id="Clip-4"></g>
                    <path d="M1008.45882,28.5381139 C1004.88076,28.5381139 1001.99376,25.6245468 1001.99376,22.0594226 L1001.99376,8.84563193 C1001.99376,4.07925397 998.115773,0.173423239 993.334504,0.173423239 C991.31746,0.173423239 989.510891,0.960209285 988.04985,2.11580129 C982.4337,6.5695723 974.786476,7.82526878 967.910989,5.11893553 C962.047532,2.81302017 955.215895,5.03990568 951.983364,10.6703433 C948.726277,16.3341491 950.220643,23.3203877 955.145737,27.2595866 C960.910972,31.8749297 963.640119,39.1351385 962.603535,46.2443124 C962.347458,48.0865859 962.603535,50.0272078 963.608548,51.7974764 C965.981644,55.9087847 971.27682,57.3365906 975.433683,54.9656952 L986.813315,48.3482626 C989.902022,46.5569193 993.869459,47.6510437 995.66375,50.7472575 C997.459795,53.8557649 996.410933,57.8177946 993.322226,59.6038692 L981.888222,66.1773963 C977.775208,68.5886848 976.326444,73.9012468 978.732865,78.0301174 C979.723847,79.7810676 981.29714,80.9647591 983.045829,81.6444158 C989.700318,84.3121122 994.606118,90.3166245 995.686551,97.6049327 C996.644208,103.821947 1001.97271,108.665599 1008.45882,108.665599 C1015.00106,108.665599 1020.30851,103.821947 1021.23284,97.6049327 C1022.33608,90.3166245 1027.24012,84.3121122 1033.89461,81.6444158 C1035.65558,80.9647591 1037.19379,79.7810676 1038.23038,78.0301174 C1040.59295,73.9012468 1039.17927,68.5886848 1035.05397,66.1773963 L1023.63926,59.6038692 C1020.55406,57.8177946 1019.4824,53.8557649 1021.25564,50.7472575 C1023.03941,47.6510437 1027.01737,46.5569193 1030.1166,48.3482626 L1041.51904,54.9656952 C1045.66537,57.3365906 1050.9588,55.9087847 1053.33365,51.7974764 C1054.33691,50.0272078 1054.60526,48.0865859 1054.33691,46.2443124 C1053.27927,39.1351385 1056.00842,31.8749297 1061.80523,27.2595866 C1066.73208,23.3203877 1068.21241,16.3341491 1064.97111,10.6703433 C1061.71578,5.03990568 1054.89466,2.81302017 1049.03121,5.11893553 C1042.14344,7.82526878 1034.50849,6.5695723 1028.92392,2.11580129 C1027.4085,0.960209285 1025.63526,0.173423239 1023.59541,0.173423239 C1018.81414,0.173423239 1014.94668,4.07925397 1014.94668,8.84563193 L1014.94668,22.0594226 C1014.94668,25.6245468 1012.04916,28.5381139 1008.45882,28.5381139 L1008.45882,28.5381139 Z M323.01316,326.389319 C297.202023,350.189597 260.002484,364.94886 222.131182,364.94886 C142.154541,364.94886 75.1132864,298.969474 75.1132864,219.382904 C75.1132864,153.463229 127.996652,87.1484056 194.352112,87.1484056 C218.549615,87.1484056 244.492299,96.8357088 259.807796,112.169256 C261.130274,113.48642 263.291141,113.496957 264.434717,111.940947 L345.919756,4.58855743 C347.624596,2.66901023 346.168817,0.173423239 344.009703,0.173423239 L99.7247217,0.173423239 C97.2586671,0.173423239 94.8890798,1.24471674 93.2263346,2.75682117 C36.9139957,53.2744564 0.000350790126,119.211693 0.000350790126,195.24192 C0.000350790126,307.778668 89.9096139,394.758919 195.744749,394.758919 C248.649162,394.758919 298.489423,371.332715 333.219399,336.635099 C341.187597,328.71104 331.463694,318.600488 323.01316,326.389319 L323.01316,326.389319 Z M889.28489,204.360208 C889.28489,200.2208 888.037832,189.790616 874.760425,189.790616 C858.922251,189.790616 842.180792,208.75778 842.180792,240.761356 C872.834587,240.761356 889.28489,216.386795 889.28489,204.360208 L889.28489,204.360208 Z M1072.07987,158.440354 C1072.07987,187.581293 1053.76863,203.065875 1038.54258,203.065875 C1020.60844,203.065875 1023.04994,190.733706 1011.34582,190.733706 C1004.39141,190.733706 998.082448,196.102467 998.082448,203.065875 L998.082448,289.828355 C998.082448,291.412464 999.420712,292.337991 1000.62392,292.685723 L1009.12883,295.21819 C1010.34256,295.553628 1012.00355,296.523061 1012.00355,298.075558 L1012.00355,305.02316 C1012.00355,306.612538 1010.7565,307.862966 1009.12883,307.862966 L954.123183,307.862966 C952.584969,307.862966 951.290553,306.612538 951.290553,305.02316 L951.290553,204.360208 C951.290553,196.415074 946.209358,192.955323 939.900398,192.955323 C934.082543,192.955323 924.986555,198.11685 916.816653,203.757825 C916.181723,234.923685 888.193933,258.506191 844.722267,258.506191 C844.722267,264.510704 858.299599,286.65838 885.206955,286.65838 C900.999527,286.65838 912.847463,280.978768 921.085769,270.207878 C924.840978,265.26939 933.859792,267.22933 929.624001,276.993907 C925.510987,286.502076 906.673557,312.3062 868.419894,312.3062 C832.441105,312.3062 802.180194,287.232663 794.855697,253.053132 C786.161363,250.459197 777.456506,246.363694 771.026523,242.162819 L771.026523,268.623768 C771.026523,291.08932 755.532123,307.862966 731.166241,307.862966 L708.406978,307.862966 C674.880212,307.862966 654.013461,289.203141 654.013461,260.079764 L654.013461,87.1923111 C654.013461,85.5959082 652.733077,84.6756495 651.473741,84.3244057 L642.946033,81.8024755 C641.686696,81.4108387 640.102879,80.5186795 640.102879,78.9222765 L640.102879,71.9641375 C640.102879,70.3905654 641.363969,69.1225754 642.946033,69.1225754 L697.972726,69.1225754 C699.546019,69.1225754 700.836927,70.3905654 700.836927,71.9641375 L700.836927,264.180535 C700.836927,278.1214 714.414259,284.157524 724.234628,284.157524 C734.956529,284.157524 747.607774,279.990017 747.607774,265.141186 L747.607774,227.138367 L728.637044,215.744019 C726.072769,214.193277 724.234628,212.240362 724.234628,208.468004 L724.234628,168.881075 C724.234628,167.31804 725.504489,166.046538 727.076028,166.046538 L768.195647,166.046538 C769.742631,166.046538 771.026523,167.31804 771.026523,168.881075 L771.026523,222.64069 C777.046082,226.648381 785.470307,231.268993 793.205229,234.572441 C794.432994,193.88085 827.156451,161.587498 868.419894,161.587498 C891.49136,161.587498 906.138602,172.407562 912.736964,185.656477 C926.379192,175.103358 947.110889,161.587498 963.941799,161.587498 C982.777475,161.587498 982.824831,177.112473 992.073413,177.112473 C995.239294,177.112473 997.749197,174.27091 997.749197,171.092154 C997.749197,167.196861 995.886502,164.272757 995.886502,160.644408 C995.886502,153.691538 1002.85319,147.330513 1010.43201,147.330513 C1024.07424,147.330513 1031.86704,161.587498 1043.63781,161.587498 C1048.68568,161.587498 1054.71576,156.5331 1054.71576,148.914623 C1054.71576,141.677245 1046.3003,130.282897 1038.25143,123.614534 C1032.74753,119.02729 1038.72148,110.562315 1045.6759,114.580544 C1063.22067,124.70339 1072.07987,140.539215 1072.07987,158.440354 L1072.07987,158.440354 Z M1166.01971,213.85784 C1166.01971,204.360208 1153.04749,194.841502 1141.02065,194.841502 C1118.87177,194.841502 1104.66126,212.240362 1104.66126,236.95563 C1104.66126,261.625236 1118.87177,279.408708 1141.02065,279.408708 C1153.04749,279.408708 1166.01971,269.877708 1166.01971,260.374808 L1166.01971,213.85784 Z M1226.73271,168.881075 L1226.73271,175.833945 C1226.73271,177.419811 1225.12785,178.317239 1223.90184,178.691313 L1215.34256,181.220268 C1214.10427,181.60488 1212.82389,182.486502 1212.82389,184.07588 L1212.82389,329.715597 C1212.82389,365.207024 1182.92955,393.698162 1147.68567,393.698162 C1123.63199,393.698162 1102.45479,382.62169 1091.69781,364.258666 C1077.1523,390.217337 1030.00435,445.963235 892.775252,445.963235 C817.181734,445.963235 688.801318,408.552261 622.068758,408.552261 C530.428346,408.552261 469.932835,433.446664 407.027395,496.609075 C405.611957,498.049174 404.443826,498.463642 402.502203,497.413423 L285.278667,433.285092 C283.782547,432.470206 283.09149,430.171316 284.657768,428.861176 C362.145553,363.029313 474.408917,329.100921 553.780445,329.100921 C709.064709,329.100921 817.181734,406.032087 944.636064,406.032087 C1052.16376,406.032087 1083.46126,352.20398 1083.46126,334.157075 C1083.46126,332.277921 1085.04507,331.334831 1086.31493,331.334831 L1097.05964,331.334831 C1098.3295,331.334831 1099.92384,332.277921 1099.92384,334.157075 C1099.92384,352.20398 1114.76928,365.819944 1133.42956,365.819944 C1152.10913,365.819944 1166.01971,351.266159 1166.01971,331.635144 L1166.01971,303.800832 C1166.01971,300.630857 1164.43765,298.721847 1161.10514,298.721847 C1156.19934,298.721847 1151.4742,312.3062 1124.24587,312.3062 C1088.53193,312.3062 1059.4409,278.744857 1059.4409,236.95563 C1059.4409,195.477253 1088.53193,161.587498 1124.24587,161.587498 C1153.4702,161.587498 1160.09136,177.419811 1167.258,177.419811 C1171.70427,177.419811 1173.59853,173.942498 1174.5369,168.881075 C1174.85962,167.31804 1176.13124,166.046538 1178.01323,166.046538 L1223.90184,166.046538 C1225.4839,166.046538 1226.73271,167.31804 1226.73271,168.881075 L1226.73271,168.881075 Z M451.547924,260.531112 C451.547924,297.445076 479.558516,307.862966 498.239844,307.862966 L594.314244,307.862966 C616.072001,307.862966 636.859824,292.044703 636.859824,266.379321 C636.859824,227.602008 577.102726,231.061759 577.102726,208.813979 C577.102726,199.772964 585.886511,196.581915 596.789068,196.581915 C604.960724,196.581915 616.194778,200.2208 622.514262,204.890586 C624.710208,206.50982 626.437849,204.913417 626.962281,203.701626 L641.686696,169.875095 C642.321626,168.429727 641.586721,166.079906 639.132944,166.079906 L570.148312,166.079906 C551.316144,166.079906 534.641335,182.340736 534.641335,202.440661 C534.641335,242.357759 586.503901,235.297759 586.503901,262.383923 C586.503901,272.875574 578.151588,281.870927 566.542189,281.870927 C543.62507,281.870927 533.967818,266.507525 532.931233,257.668475 C532.724267,255.956162 530.545861,254.80057 529.051495,255.385391 L519.532805,259.154236 C517.705188,259.87253 517.349136,262.401485 518.340118,263.593957 C519.990586,265.610097 520.909656,267.573549 520.909656,270.754062 C520.909656,276.858678 516.116109,282.08343 509.538794,282.08343 C502.998312,282.08343 498.359113,276.491629 498.359113,270.754062 L498.359113,71.9641375 C498.359113,70.3905654 497.082237,69.1225754 495.510697,69.1225754 L440.485758,69.1225754 C438.914218,69.1225754 437.62331,70.3905654 437.62331,71.9641375 L437.62331,78.9222765 C437.62331,80.5186795 439.259746,81.4494755 440.485758,81.8024755 L449.039775,84.3244057 C450.20966,84.6756495 451.547924,85.5959082 451.547924,87.1923111 L451.547924,260.531112 Z M228.031472,213.85784 C228.031472,204.360208 215.057499,194.841502 203.051707,194.841502 C180.885279,194.841502 166.671263,212.240362 166.671263,236.95563 C166.671263,261.625236 180.885279,279.408708 203.051707,279.408708 C215.057499,279.408708 228.031472,269.877708 228.031472,260.374808 L228.031472,213.85784 Z M437.079586,194.841502 C437.079586,213.524158 422.188545,228.388794 403.544049,228.388794 C394.702384,228.388794 387.423489,220.78261 387.423489,212.284267 C387.423489,204.019502 391.839937,203.857929 391.839937,198.317059 C391.839937,194.193457 388.358345,190.733706 384.250593,190.733706 C377.294424,190.733706 371.897518,196.102467 371.897518,203.065875 L371.897518,289.828355 C371.897518,291.412464 373.249814,292.337991 374.449516,292.685723 L382.977224,295.21819 C384.189204,295.553628 385.836164,296.523061 385.836164,298.075558 L385.836164,305.02316 C385.836164,306.612538 384.561042,307.862966 382.977224,307.862966 L327.964563,307.862966 C326.363206,307.862966 325.117901,306.612538 325.117901,305.02316 L325.117901,265.877042 C309.563867,282.016693 278.075191,312.3062 261.651198,312.3062 C243.517102,312.3062 245.827055,292.685723 232.140978,292.685723 C220.2299,292.685723 219.491486,312.3062 186.264646,312.3062 C150.536671,312.3062 121.442138,278.744857 121.442138,236.95563 C121.442138,195.477253 150.536671,161.587498 186.264646,161.587498 C215.473185,161.587498 222.131182,177.419811 229.292562,177.419811 C233.714272,177.419811 235.598015,173.942498 236.545148,168.881075 C236.873137,167.31804 238.160537,166.046538 240.046034,166.046538 L285.889041,166.046538 C287.488644,166.046538 288.751489,167.31804 288.751489,168.881075 L288.751489,175.833945 C288.751489,177.419811 287.123823,178.317239 285.889041,178.691313 L277.320993,181.220268 C276.112521,181.60488 274.826875,182.486502 274.826875,184.07588 L274.826875,260.699709 C274.826875,265.799768 279.573065,269.877708 284.612165,269.877708 C293.804621,269.877708 313.466407,253.623903 325.117901,243.221819 L325.117901,189.170671 C325.117901,185.656477 322.478205,184.07588 319.62102,184.07588 C316.134166,184.07588 316.00262,187.240587 311.510752,187.240587 C307.406508,187.240587 304.870295,183.747467 304.870295,180.577492 C304.870295,174.57298 315.627274,161.587498 332.370487,161.587498 C361.366799,161.587498 356.924042,183.106447 367.168867,183.106447 C376.494623,183.106447 378.083702,161.587498 403.544049,161.587498 C422.188545,161.587498 437.079586,176.146552 437.079586,194.841502 L437.079586,194.841502 Z" id="Fill-3" fill="#010202" mask="url(#mask-2)"></path>
                </g>
            </g>
        </g>
    </g>
</svg>